<svg width="30" height="30" viewBox="0 0 30 30" fill="none" xmlns="http://www.w3.org/2000/svg">
<path d="M15 1C7.272 1 1 7.272 1 15C1 22.728 7.272 29 15 29C22.728 29 29 22.728 29 15C29 7.272 22.728 1 15 1ZM15 6.6C17.702 6.6 19.9 8.798 19.9 11.5C19.9 14.202 17.702 16.4 15 16.4C12.298 16.4 10.1 14.202 10.1 11.5C10.1 8.798 12.298 6.6 15 6.6ZM15 26.2C12.158 26.2 8.798 25.052 6.404 22.168C8.85625 20.244 11.8831 19.1983 15 19.1983C18.1169 19.1983 21.1438 20.244 23.596 22.168C21.202 25.052 17.842 26.2 15 26.2Z" fill="#B3B3B3" fill-opacity="0.66"/>
</svg>
