<svg width="16" height="16" viewBox="0 0 16 16" fill="none" xmlns="http://www.w3.org/2000/svg">
<path d="M7.11331 14.0001C6.87998 14.0001 6.69998 13.7934 6.73331 13.5601L7.33331 9.33339H4.99998C4.41331 9.33339 4.77998 8.83339 4.79331 8.81339C5.63331 7.32673 6.89331 5.12672 8.55998 2.19339C8.60485 2.11642 8.67504 2.05741 8.75858 2.02643C8.84212 1.99546 8.93382 1.99445 9.01802 2.02356C9.10222 2.05268 9.17371 2.11012 9.22027 2.18608C9.26683 2.26204 9.28558 2.35181 9.27331 2.44006L8.67331 6.66672H11.0133C11.28 6.66672 11.4266 6.79339 11.28 7.10672C9.08665 10.9334 7.81331 13.1667 7.44665 13.8067C7.37998 13.9267 7.25331 14.0001 7.11331 14.0001Z" fill="white"/>
</svg>
