<svg width="44" height="44" viewBox="0 0 44 44" fill="none" xmlns="http://www.w3.org/2000/svg">
<g clip-path="url(#clip0_45_176)">
<path d="M32 0H12H0V11.9V32V44H12H32H44V32.1V12V0H32ZM26.4 31.5L23.8 35.5C23 36.8 21.1 36.8 20.2 35.5L17.6 31.5C17.1 30.8 17.6 29.9 18.5 29.9L22 30H22.1L25.5 29.9C26.3 29.8 26.8 30.8 26.4 31.5ZM22 28.7C14.5 28.7 8.5 27.1 8.5 25C8.5 23.6 11.5 22.3 16 21.7L19.3 9.7C19.6 8.5 20.7 7.5 22.1 7.5C22.8 7.5 23.4 7.7 23.9 8.2L29.6 12C30.1 12.3 30.4 12.8 30.4 13.4C30.4 14.3 29.6 15.1 28.7 15.1C28.5 15.1 28.3 15.1 28.2 15L26.1 14.7L28.1 21.7C32.5 22.3 35.6 23.6 35.6 25C35.5 27.1 29.5 28.7 22 28.7Z" fill="#B3B3B3" fill-opacity="0.66"/>
</g>
<defs>
<clipPath id="clip0_45_176">
<rect width="44" height="44" rx="12" fill="white"/>
</clipPath>
</defs>
</svg>
